<svg viewBox="0 0 96 96" xmlns="http://www.w3.org/2000/svg"><path d="M35 64a6 6 0 1 0 6 6 6 6 0 0 0-6-6Zm0 11a5 5 0 1 1 5-5 5 5 0 0 1-5 5ZM63 64a6 6 0 1 0 6 6 6 6 0 0 0-6-6Zm0 11a5 5 0 1 1 5-5 5 5 0 0 1-5 5ZM67.79 55a.49.49 0 0 0 .46-.31l11.6-29a.5.5 0 0 0-.46-.69H23.92L23 21.38a.26.26 0 0 0-.07-.15.39.39 0 0 0-.1-.08h-.05a.34.34 0 0 0-.12 0H16.5a.5.5 0 0 0-.5.5v4a.5.5 0 0 0 .5.5h6.64l8 31.14A3 3 0 0 0 32 63h36.5a.5.5 0 0 0 .5-.5v-5a.5.5 0 0 0-.5-.5H32.15l-.52-2Zm10.86-29-11.2 28H31.62l-7.23-28ZM17 25v-3h5.11l.75 3Zm51 37H32a2 2 0 0 1 0-4h36Z" fill="#ffffff" class="fill-000000"></path><path d="M50 50a10 10 0 1 0-10-10 10 10 0 0 0 10 10Zm0-19a9 9 0 1 1-9 9 9 9 0 0 1 9-9Z" fill="#ffffff" class="fill-000000"></path><path d="M45 40.5h8.79l-2.64 2.65a.48.48 0 0 0 0 .7.48.48 0 0 0 .7 0l3.5-3.5a.36.36 0 0 0 .11-.16.5.5 0 0 0 0-.38.36.36 0 0 0-.11-.16l-3.5-3.5a.49.49 0 0 0-.7.7l2.64 2.65H45a.5.5 0 0 0 0 1Z" fill="#ffffff" class="fill-000000"></path></svg>