<?xml version="1.0" ?><svg viewBox="0 0 96 96" xmlns="http://www.w3.org/2000/svg"><title/><g id="Checkout"><path d="M35,64a6,6,0,1,0,6,6A6,6,0,0,0,35,64Zm0,11a5,5,0,1,1,5-5A5,5,0,0,1,35,75Z"/><path d="M63,64a6,6,0,1,0,6,6A6,6,0,0,0,63,64Zm0,11a5,5,0,1,1,5-5A5,5,0,0,1,63,75Z"/><path d="M67.79,55a.49.49,0,0,0,.46-.31l11.6-29a.5.5,0,0,0-.46-.69H23.92L23,21.38s0,0,0,0a.26.26,0,0,0-.07-.15l0,0a.39.39,0,0,0-.1-.08l-.05,0a.34.34,0,0,0-.12,0H16.5a.5.5,0,0,0-.5.5v4a.5.5,0,0,0,.5.5h6.64l8,31.14A3,3,0,0,0,32,63H68.5a.5.5,0,0,0,.5-.5v-5a.5.5,0,0,0-.5-.5H32.15l-.52-2ZM78.65,26,67.45,54H31.62L24.39,26ZM17,25V22h5.11l.75,3ZM68,62H32a2,2,0,0,1,0-4H68Z"/><path d="M50,50A10,10,0,1,0,40,40,10,10,0,0,0,50,50Zm0-19a9,9,0,1,1-9,9A9,9,0,0,1,50,31Z"/><path d="M45,40.5h8.79l-2.64,2.65a.48.48,0,0,0,0,.7.48.48,0,0,0,.7,0l3.5-3.5a.36.36,0,0,0,.11-.16.5.5,0,0,0,0-.38.36.36,0,0,0-.11-.16l-3.5-3.5a.49.49,0,0,0-.7.7l2.64,2.65H45a.5.5,0,0,0,0,1Z"/></g></svg>